<svg width="40" height="40" viewBox="0 0 40 40" xmlns="http://www.w3.org/2000/svg">
<path d="M13.0458 15.2251L11.15 13.3293L11.8875 12.5918L13.0458 13.7501L15.4458 11.3501L16.1833 12.0876L13.0458 15.2251Z" />
<path d="M13.0458 22.4792L11.15 20.5834L11.8875 19.8501L13.0458 21.0084L15.4458 18.6084L16.1833 19.3417L13.0458 22.4792Z" />
<path d="M13.0458 29.7375L11.15 27.8417L11.8875 27.1042L13.0458 28.2625L15.4458 25.8625L16.1833 26.6L13.0458 29.7375Z" />
<path d="M27.7792 13.8085H26.7375V12.7668H27.7792V13.8085ZM25.4875 13.8085H24.4458V12.7668H25.4875V13.8085ZM23.1958 13.8085H22.1542V12.7668H23.1958V13.8085ZM20.9042 13.8085H19.8625V12.7668H20.9042V13.8085Z" />
<path d="M27.7791 21.0627H26.7374V20.021H27.7791V21.0627ZM25.4874 21.0627H24.4458V20.021H25.4874V21.0627ZM23.1958 21.0627H22.1541V20.021H23.1958V21.0627ZM20.9041 21.0627H19.8624V20.021H20.9041V21.0627Z" />
<path d="M27.7791 28.1252H26.7374V27.0835H27.7791V28.1252ZM25.4874 28.1252H24.4458V27.0835H25.4874V28.1252ZM23.1958 28.1252H22.1541V27.0835H23.1958V28.1252ZM20.9041 28.1252H19.8624V27.0835H20.9041V28.1252Z" />
<path d="M27.5 1.04175H26.75V7.82925H32.5V38.9751H33.5417V7.08342L27.5 1.04175ZM27.8042 6.78758V2.81675L31.775 6.78758H27.8042ZM6.45831 38.9584H32.8589V37.9167H7.49998V2.08341H25.5V1.04175H6.45831V38.9584Z" />
</svg>
