<svg width="20" height="16" viewBox="0 0 20 16" fill="none" xmlns="http://www.w3.org/2000/svg">
<path fill-rule="evenodd" clip-rule="evenodd" d="M8.0033 4.84204H20.0001V6.04288H8.0033V4.84204ZM8.0033 7.29704H20.0001V8.4986H8.0033V7.29704ZM20.0001 9.75336H8.0033V10.9542H20.0001V9.75336Z" fill="#929AA5"/>
<path d="M3.66836 2.79884L5.4012 5.90876L6.88804 3.60704H19.996V2.40624H6.23488L5.47716 3.57904L3.76152 0.5L1.32564 4.14352H0V5.34436H1.96664L3.66836 2.79884Z" fill="#D9304E"/>
<path d="M5.40242 9.89136L3.66962 13.0014L1.96778 10.4558H0.00109863V11.6566H1.32678L3.76266 15.3001L5.4783 12.221L6.23594 13.3938H19.9961V12.193H6.88918L5.40242 9.89136Z" fill="#02C076"/>
</svg>
