<svg width="64" height="64" viewBox="0 0 64 64" xmlns="http://www.w3.org/2000/svg">
<path d="M0 64V0H46.9333V64H0ZM3.53961 60.5443H43.3936V3.4563H3.53961V60.5443ZM27.3 24.6H25.35V22H27.3C30.8899 22 33.8 24.9101 33.8 28.5C33.8 32.0899 30.8899 35 27.3 35H25.35V32.4H27.3C29.4539 32.4 31.2 30.6539 31.2 28.5C31.2 26.3461 29.4539 24.6 27.3 24.6ZM21.45 22V24.6H19.5C17.3461 24.6 15.6 26.3461 15.6 28.5C15.6 30.6539 17.3461 32.4 19.5 32.4H21.45V35H19.5C15.9101 35 13 32.0899 13 28.5C13 24.9101 15.9101 22 19.5 22H21.45ZM19.2 27.2C18.6477 27.2 18.2 27.6477 18.2 28.2V28.8C18.2 29.3523 18.6477 29.8 19.2 29.8H27.6C28.1523 29.8 28.6 29.3523 28.6 28.8V28.2C28.6 27.6477 28.1523 27.2 27.6 27.2H19.2ZM34.6347 52.7354H12.3479V56.1913H34.6347V52.7354Z" />
</svg>
