<svg width="12" height="12" viewBox="0 0 12 12" xmlns="http://www.w3.org/2000/svg">
<path d="M1.17241 2.2069L4.27586 5.31035L5.31034 4.34483L2.2069 1.24138C2.26821 1.25014 2.32842 1.2589 2.38765 1.26752C2.79477 1.32675 3.15601 1.37931 3.51724 1.37931H4.82759V0H0V4.82759H1.37931V3.51724C1.35558 3.37487 1.34002 3.22432 1.32419 3.07123C1.29402 2.7794 1.26289 2.47831 1.17241 2.2069ZM9.7931 1.24138L6.68965 4.34483L7.65517 5.31035L10.7586 2.2069C10.7499 2.26822 10.7411 2.32843 10.7325 2.38767L10.7325 2.38769C10.6732 2.79479 10.6207 3.15602 10.6207 3.51724V4.82759H12V0H7.17241V1.37931H8.48276C8.96552 1.37931 9.37931 1.31035 9.7931 1.24138ZM5.31034 7.65517L2.20691 10.7586C2.6207 10.6897 3.03449 10.6207 3.51724 10.6207H4.82759V12H0V7.17241H1.37931V8.48276C1.37931 8.84399 1.32675 9.20523 1.26752 9.61235L1.2675 9.61249C1.25888 9.67168 1.25013 9.73183 1.24138 9.7931L4.34483 6.68965L5.31034 7.65517ZM10.7586 9.79309L7.65517 6.68965L6.68965 7.65517L9.7931 10.7586C9.73178 10.7499 9.67157 10.7411 9.61233 10.7325C9.20522 10.6732 8.84399 10.6207 8.48276 10.6207H7.17241V12H12V7.17241H10.6207V8.48276C10.6207 8.96551 10.6897 9.3793 10.7586 9.79309Z" />
</svg>
